<svg xmlns="http://www.w3.org/2000/svg" viewBox="0 0 26.28 9.57"><defs><style>.a{fill:#545554;}</style></defs><polygon class="a" points="17.08 2.77 17.08 3.8 18.12 3.8 18.12 2.8 20.13 2.79 20.13 3.8 21.22 3.8 21.22 4.84 23.27 4.83 23.27 5.84 24.27 5.84 24.27 6.95 25.31 6.94 25.31 8.9 1.61 8.9 1.64 6.89 2.56 6.88 2.56 4.84 3.67 4.83 3.67 3.82 5.7 3.82 5.7 2.8 8.76 2.8 8.76 3.8 9.85 3.8 9.85 2.79 10.88 2.79 10.88 1.68 11.91 1.66 11.91 0.68 14.95 0.68 14.95 1.77 15.98 1.77 15.98 2.78 17.08 2.77 17.08 2.77"/></svg>