<svg xmlns="http://www.w3.org/2000/svg" viewBox="0 0 228.91 253.4"><defs><style>.a{fill:#fff;}</style></defs><path class="a" d="M13.76,109.53h9.37V90.47a7.38,7.38,0,0,0-1.28-.25c-.37,0-.75.14-1.12.15-1.88,0-3.76,0-5.64,0a2.35,2.35,0,0,1-.74-.26l-.53.4c-.16-.28-.29-.52-.39-.71a11.07,11.07,0,0,0,.12-3.07q.07-1.57,0-3.15c0-1,.23-2.1-.22-3.08l.45-.45h9.4V70.73a.25.25,0,0,1,.06-.14.63.63,0,0,1,.11-.12h9.78V50.9h9.62V41.45l-.52-.52h-9V21.35h9.59V11.43h8.73a1.82,1.82,0,0,0,.33,0A1,1,0,0,1,53,12c-.42,1-.52,4.93-.24,8.94l.38.38h9c.15-.15.26-.27.47-.47,0-2.61,0-5.3,0-8a2.82,2.82,0,0,0-.29-.84c.34-.84,1-.61,1.48-.61H92.18v10h19.58V31h9.4l.48.48V50.9H112a.27.27,0,0,0-.15.05,1.31,1.31,0,0,0-.11.12v9.44h10V90H141a.25.25,0,0,1,.14.06l.11.13V100l18.16-.1c.08,0,.16-.14.24-.22l.56.47.42-.79.22.17V90h19.53v-10h10V70.51h19.58v9.58h8.72c.45,0,.89,0,1.15.45.2,4.52.13,18.06-.12,19.45h-9.78v9.63h9.89v9.81l-1.76.45c-.06-.06-.14-.2-.22-.2H210.3L210,120v9.55h9.85v19.52h-9.34c-.75.41-.55,1-.55,1.54q0,8.63,0,17.24v1.23c-.22-.19-.3-.32-.38-.32l-9.23-.12v9.95h-10v10c-1.77,0-3.42,0-5.08,0s-3.24-.06-5,.06a1.29,1.29,0,0,1,.42,1.63,4.53,4.53,0,0,0-.28,2c0,.77,0,1.55,0,2.32a4.58,4.58,0,0,0,.29,2.21,1,1,0,0,1-.54,1.36H162.91a2.6,2.6,0,0,0-2.15.6v9.39h-9.53v9.36l-.56.62H141.3v19.15h9.38l.53.52v9.29l-.46.46c-.16-.07-.41-.22-.47-.17a1.25,1.25,0,0,1-1.39.16,5.46,5.46,0,0,0-2.7-.27c-1.75-.05-3.5,0-5.31,0v-9.54c-3.94-.21-17.84-.14-19.25.1v9.44c-2.71,0-5.35,0-8,0a12.44,12.44,0,0,0-1.78.25l-.39-.37c.36-.92.45-5.41.2-9.44H92.17c0,2.95,0,5.82,0,8.69a1.14,1.14,0,0,1-.55,1.19,5,5,0,0,1-1.54,0c-1.82-.57-3.68-.2-5.51-.3-.76,0-1.53,0-2.28,0v-10h9.42l.47-.46v-9.13h9.55v-9.59H82.22v-9.95H62.65v-9.46l-.59-.56H52.67v-9.59h-10v-19.9H33.09v-29.1a20.4,20.4,0,0,1-2.72-.32,5.82,5.82,0,0,0-2.84.23c-1.43.32-2.86-.17-4.35-.4v-9.25a.24.24,0,0,0-.05-.14,1.57,1.57,0,0,0-.16-.18H13.56v-1.69c0-5.3,0-10.61,0-15.91a14.34,14.34,0,0,0-.24-1.84Z"/><path d="M111.74,60.52V51.08a1.31,1.31,0,0,1,.11-.12.27.27,0,0,1,.15-.05h9.64V31.45l-.48-.48h-9.4V21.4H92.18v-10H63.83c-.52,0-1.14-.23-1.48.61a2.82,2.82,0,0,1,.29.84c0,2.7,0,5.39,0,8l-.47.47h-9L52.79,21c-.28-4-.18-8,.24-8.94a1,1,0,0,0-1.18-.61,1.82,1.82,0,0,1-.33,0H42.79v9.92H33.2V40.93h9l.52.52V50.9h10V41.21a.28.28,0,0,1,.06-.15s.08-.07.06-.06h39.4V51h9.57v9.31a.25.25,0,0,0,.06.14.57.57,0,0,0,.11.11Z"/><path d="M33.13,70.47H23.35a.63.63,0,0,0-.11.12.25.25,0,0,0-.06.14V80h-9.4l-.45.45c.45,1,.18,2,.22,3.08s0,2.1,0,3.15a11.07,11.07,0,0,1-.12,3.07l.39.71.53-.4a2.35,2.35,0,0,0,.74.26c1.88,0,3.76,0,5.64,0,.37,0,.75-.17,1.12-.15a7.38,7.38,0,0,1,1.28.25v19.06H13.76l-.45.48a14.34,14.34,0,0,1,.24,1.84c0,5.3,0,10.61,0,15.91v1.69H23a1.57,1.57,0,0,1,.16.18.24.24,0,0,1,.05.14V139c1.49.23,2.92.72,4.35.4a5.82,5.82,0,0,1,2.84-.23,20.4,20.4,0,0,0,2.72.32v29.1h9.62v19.9h10v9.59h9.39l.59.56v9.46H82.22v-10H62.9a.25.25,0,0,1-.14-.06,2.3,2.3,0,0,1-.17-.19v-9.37c-3.29-.69-6.58-.1-9.93-.39V168.6H43.1a9.84,9.84,0,0,0-.31-3.07A2.85,2.85,0,0,1,43,164a2.25,2.25,0,0,0-.08-1.69,1.83,1.83,0,0,1,.07-1.75c-.08-.78-.36-1.45-.15-1.88a4.56,4.56,0,0,0,.27-2.2q0-12.86,0-25.7c0-.42,0-.84.06-1.31h9.53v-9.91H43.05V110H33.67l-.54-.52V90H23.51c0-3.19,0-6.28,0-9.36a.3.3,0,0,1,.05-.15,1.31,1.31,0,0,1,.12-.11h9.44Z"/><path d="M82.22,208.12v9.95h19.52v9.59H92.19v9.13l-.47.46H82.3v10c.75,0,1.52,0,2.28,0,1.83.1,3.69-.27,5.51.3a5,5,0,0,0,1.54,0,1.14,1.14,0,0,0,.55-1.19c0-2.87,0-5.74,0-8.69h19.49c.25,4,.16,8.52-.2,9.44l.39.37a12.44,12.44,0,0,1,1.78-.25c2.65,0,5.29,0,8,0v-9.44c1.41-.24,15.31-.31,19.25-.1v9.54c1.81,0,3.56,0,5.31,0a5.46,5.46,0,0,1,2.7.27,1.25,1.25,0,0,0,1.39-.16c.06,0,.31.1.47.17l.46-.46V237.8l-.53-.52H141.3V218.13h9.37l.56-.62v-9.36h9.53v-9.39a2.6,2.6,0,0,1,2.15-.6h17.24a1,1,0,0,0,.54-1.36,4.58,4.58,0,0,1-.29-2.21c0-.77,0-1.55,0-2.32a4.53,4.53,0,0,1,.28-2,1.29,1.29,0,0,0-.42-1.63c1.77-.12,3.39,0,5-.06s3.31,0,5.08,0v-10h-10c0,3.2,0,6.29,0,9.38a.25.25,0,0,1-.06.13,1.31,1.31,0,0,1-.12.11H162.14c-.06,0-.12,0-.16,0l-.36.28s-.07-.07-.11-.11l-.12-.11s-.08,0,0,0l-.59.46v9.45h-9.41l-.47.47c0,3,0,6.12,0,9.2a.24.24,0,0,1-.05.14.68.68,0,0,1-.12.12H131.31v19.61h-10v9.49h-9.52V218.08h9.35l.55-.5v-9.46Z"/><path d="M200.3,168.65l9.23.12c.08,0,.16.13.38.32v-1.23q0-8.62,0-17.24c0-.53-.2-1.13.55-1.54h9.34V129.56H210V120l.34-.34h7.52c.08,0,.16.14.22.2l1.76-.45v-9.81h-9.89V100H200.3v9.7a.34.34,0,0,0,0,.14,1.25,1.25,0,0,0,.19.17h9.37v9.32a.25.25,0,0,1-.06.14l-.13.11h-9.26L200,120c.5.36.31.88.31,1.35q0,8,0,16.07v1.67h9.36a.39.39,0,0,1,.14.05l.06.06v9.84H200.3Z"/><path d="M141.26,100V90.23l-.11-.13A.25.25,0,0,0,141,90H121.69V60.52h-10V100Z"/><path d="M209.91,100h9.78c.25-1.39.32-14.93.12-19.45-.26-.48-.7-.46-1.15-.45h-8.72V70.51H190.36v9.58h-10V90h10V80.46h19.52Z"/><path d="M180.39,90H160.86v9.48l-.22-.17-.42.79-.56-.47c-.08.08-.16.22-.24.22l-18.16.1v9.56c5,.21,18.17.13,19.62-.12V100h19.26a.34.34,0,0,0,.14,0,.6.6,0,0,0,.11-.12Z"/><path d="M42.75,50.9H33.13V70.47h9.95V53.74a12.33,12.33,0,0,0,0-1.49A11,11,0,0,0,42.75,50.9Z"/><circle cx="195.32" cy="173.62" r="7.04"/><path d="M111.74,168.68v9.74c1.37.26,40.83.37,59,.16v-9.51l-.39-.39Z"/><path d="M92.13,129.56H82.25V159h9.48l.4-.37Z"/><path d="M170.78,149.14v19.35a.52.52,0,0,0,.11.1.28.28,0,0,0,.15.06h9.31v-9.59h9.46l.5-.5v-9.42Z"/><path d="M170.82,119.61v19.48h9.5V119.61Z"/><path d="M111.69,168.6v-9.54H92.24v9.54Z"/><path d="M170.78,149c0-2.87,0-5.8,0-8.72a1.15,1.15,0,0,0-.55-1.18h-5.53a9.2,9.2,0,0,1-1.82,0c-.54-.1-1,.49-1.6.05l-.43.51V149Z"/><path d="M33.13,80.42V90h9.78l.11-.11a.25.25,0,0,0,.06-.14V80.42Z"/><path d="M170.73,119.51V110H160.9v9.53Z"/><path d="M92.22,129.46h9.53v-9.83H92.22Z"/><path d="M121.69,208.12h9.62v-9.78l-.11-.12a.44.44,0,0,0-.15-.05h-9.36Z"/><rect x="53.26" y="71.72" width="19.52" height="19.46" transform="translate(126.05 162.89) rotate(-180)"/></svg>