<svg id="Layer_1" data-name="Layer 1" xmlns="http://www.w3.org/2000/svg" viewBox="0 0 228.91 253.4"><defs><style>.cls-1{fill:#fff;}</style></defs><path class="cls-1" d="M219.48,109.53H210.1V90.47a7.3,7.3,0,0,1,1.29-.25c.37,0,.74.14,1.12.15,1.88,0,3.75,0,5.63,0a2.49,2.49,0,0,0,.75-.26l.52.4.4-.71a11.06,11.06,0,0,1-.13-3.07q-.06-1.57,0-3.15c0-1-.23-2.1.22-3.08l-.45-.45h-9.4V70.73a.34.34,0,0,0-.05-.14.68.68,0,0,0-.12-.12H200.1V50.9h-9.62V41.45l.52-.52h9V21.35h-9.59V11.43h-8.72a1.93,1.93,0,0,1-.34,0,1,1,0,0,0-1.18.61c.42,1,.53,4.93.24,8.94l-.38.38h-9l-.47-.47c0-2.61,0-5.3,0-8a2.35,2.35,0,0,1,.29-.84c-.35-.84-1-.61-1.49-.61H141.05v10H121.47V31h-9.4l-.47.48V50.9h9.64a.24.24,0,0,1,.14.05.63.63,0,0,1,.11.12v9.44h-9.95V90H92.22a.25.25,0,0,0-.14.06.64.64,0,0,0-.1.13V100l-18.17-.1c-.08,0-.15-.14-.23-.22l-.57.47-.42-.79-.21.17V90H52.84v-10h-10V70.51H23.3v9.58H14.57c-.45,0-.88,0-1.14.45-.21,4.52-.13,18.06.11,19.45h9.78v9.63H13.44v9.81l1.75.45c.07-.06.15-.2.23-.2h7.51l.34.34v9.55H13.42v19.52h9.35c.74.41.54,1,.54,1.54q0,8.63,0,17.24v1.23c.23-.19.3-.32.38-.32,3.08-.05,6.16-.08,9.24-.12v9.95h10v10c1.77,0,3.42,0,5.07,0s3.25-.06,5,.06a1.32,1.32,0,0,0-.42,1.63,4.4,4.4,0,0,1,.28,2c0,.77,0,1.55,0,2.32a4.7,4.7,0,0,1-.28,2.21,1,1,0,0,0,.53,1.36H70.32a2.63,2.63,0,0,1,2.16.6v9.39H82v9.36l.56.62h9.37v19.15H82.55l-.52.52v9.29l.45.46c.17-.07.41-.22.47-.17a1.25,1.25,0,0,0,1.39.16,5.49,5.49,0,0,1,2.71-.27c1.74-.05,3.49,0,5.3,0v-9.54c3.94-.21,17.85-.14,19.25.1v9.44c2.71,0,5.36,0,8,0a12.25,12.25,0,0,1,1.78.25l.39-.37c-.36-.92-.45-5.41-.19-9.44h19.48c0,2.95,0,5.82,0,8.69a1.13,1.13,0,0,0,.54,1.19,5.06,5.06,0,0,0,1.55,0c1.82-.57,3.67-.2,5.5-.3.76,0,1.53,0,2.28,0v-10h-9.42l-.47-.46v-9.13h-9.55v-9.59H151v-9.95h19.57v-9.46l.59-.56h9.39v-9.59h10v-19.9h9.63v-29.1a20.6,20.6,0,0,0,2.72-.32,5.79,5.79,0,0,1,2.83.23c1.43.32,2.87-.17,4.35-.4v-9.25a.34.34,0,0,1,0-.14s.08-.08.16-.18h9.41v-1.69c0-5.3,0-10.61,0-15.91a14.52,14.52,0,0,1,.25-1.84Z"/><path d="M121.49,60.52V51.08a.63.63,0,0,0-.11-.12.24.24,0,0,0-.14-.05H111.6V31.45l.47-.48h9.4V21.4h19.58v-10H169.4c.52,0,1.14-.23,1.49.61a2.35,2.35,0,0,0-.29.84c0,2.7,0,5.39,0,8l.47.47h9l.38-.38c.29-4,.18-8-.24-8.94a1,1,0,0,1,1.18-.61,1.93,1.93,0,0,0,.34,0h8.72v9.92H200V40.93h-9l-.52.52V50.9h-9.95V41.21a.28.28,0,0,0-.06-.15l-.06-.06H141V51h-9.57c0,3.14,0,6.22,0,9.31a.24.24,0,0,1-.05.14.63.63,0,0,1-.12.11Z"/><path d="M200.1,70.47h9.78a.68.68,0,0,1,.12.12.34.34,0,0,1,.05.14V80h9.4l.45.45c-.45,1-.18,2-.22,3.08s0,2.1,0,3.15a11.06,11.06,0,0,0,.13,3.07l-.4.71-.52-.4a2.49,2.49,0,0,1-.75.26c-1.88,0-3.75,0-5.63,0-.38,0-.75-.17-1.12-.15a7.3,7.3,0,0,0-1.29.25v19.06h9.38l.45.48a14.52,14.52,0,0,0-.25,1.84c0,5.3,0,10.61,0,15.91v1.69h-9.41c-.08.1-.13.13-.16.18a.34.34,0,0,0,0,.14V139c-1.48.23-2.92.72-4.35.4a5.79,5.79,0,0,0-2.83-.23,20.6,20.6,0,0,1-2.72.32v29.1h-9.63v19.9h-10v9.59h-9.39l-.59.56v9.46H151v-10h19.33a.28.28,0,0,0,.14-.06,2.3,2.3,0,0,0,.17-.19v-9.37c3.28-.69,6.57-.1,9.93-.39V168.6h9.56a9.55,9.55,0,0,1,.3-3.07,2.76,2.76,0,0,0-.17-1.55,2.3,2.3,0,0,1,.08-1.69,1.81,1.81,0,0,0-.07-1.75c.09-.78.37-1.45.15-1.88a4.68,4.68,0,0,1-.27-2.2q0-12.86,0-25.7c0-.42,0-.84-.06-1.31h-9.52v-9.91h9.61V110h9.38l.54-.52V90h9.62V80.68a.32.32,0,0,0-.06-.15,1.31,1.31,0,0,0-.12-.11H200.1Z"/><path d="M151,208.12v9.95H131.49v9.59H141v9.13l.47.46h9.42v10c-.75,0-1.52,0-2.28,0-1.83.1-3.68-.27-5.5.3a5.06,5.06,0,0,1-1.55,0,1.13,1.13,0,0,1-.54-1.19c0-2.87,0-5.74,0-8.69H121.58c-.26,4-.17,8.52.19,9.44l-.39.37a12.25,12.25,0,0,0-1.78-.25c-2.64,0-5.29,0-8,0v-9.44c-1.4-.24-15.31-.31-19.25-.1v9.54c-1.81,0-3.56,0-5.3,0a5.49,5.49,0,0,0-2.71.27,1.25,1.25,0,0,1-1.39-.16c-.06,0-.3.1-.47.17l-.45-.46V237.8l.52-.52h9.39V218.13H82.57l-.56-.62v-9.36H72.48v-9.39a2.63,2.63,0,0,0-2.16-.6H53.08a1,1,0,0,1-.53-1.36,4.7,4.7,0,0,0,.28-2.21c0-.77,0-1.55,0-2.32a4.4,4.4,0,0,0-.28-2,1.32,1.32,0,0,1,.42-1.63c-1.76-.12-3.39,0-5-.06s-3.3,0-5.07,0v-10h10V188a.25.25,0,0,0,.06.13l.13.11H71.09c.06,0,.13,0,.16,0s.24.19.36.28.08-.07.11-.11l.12-.11s.08,0,0,0l.6.46v9.45h9.41l.47.47v9.2a.34.34,0,0,0,0,.14.68.68,0,0,0,.12.12h19.4v19.61h10v9.49h9.53V218.08h-9.36l-.55-.5v-9.46Z"/><path d="M32.94,168.65c-3.08,0-6.16.07-9.24.12-.08,0-.15.13-.38.32v-1.23q0-8.62,0-17.24c0-.53.2-1.13-.54-1.54H13.42V129.56h9.85V120l-.34-.34H15.42c-.08,0-.16.14-.23.2l-1.75-.45v-9.81h9.88V100h9.62v9.7a.25.25,0,0,1-.06.14,1.25,1.25,0,0,1-.19.17H23.32v9.32a.27.27,0,0,0,.07.14,1.31,1.31,0,0,0,.12.11h9.27l.47.47c-.49.36-.31.88-.31,1.35,0,5.35,0,10.71,0,16.07v1.67H23.58a.38.38,0,0,0-.15.05s-.07.08-.05.06v9.84h9.56Z"/><path d="M92,100V90.23a.64.64,0,0,1,.1-.13.25.25,0,0,1,.14-.06h19.32V60.52h9.95V100Z"/><path d="M23.32,100H13.54c-.24-1.39-.32-14.93-.11-19.45.26-.48.69-.46,1.14-.45H23.3V70.51H42.88v9.58h10V90h-10V80.46H23.32Z"/><path d="M52.84,90H72.38v9.48l.21-.17.42.79.57-.47c.08.08.15.22.23.22L92,100v9.56c-5,.21-18.18.13-19.63-.12V100H53.09a.39.39,0,0,1-.14,0l-.11-.12Z"/><path d="M190.48,50.9h9.62V70.47h-9.95V53.74a14.79,14.79,0,0,1,0-1.49A13.2,13.2,0,0,1,190.48,50.9Z"/><circle cx="37.91" cy="173.62" r="7.04"/><path d="M121.49,168.68v9.74c-1.37.26-40.82.37-59,.16v-9.51l.39-.39Z"/><path d="M141.1,129.56H151V159H141.5l-.4-.37Z"/><path d="M62.46,149.14v19.35s-.07.08-.12.1a.25.25,0,0,1-.14.06H52.88v-9.59H43.42l-.5-.5v-9.42Z"/><path d="M62.41,119.61v19.48h-9.5V119.61Z"/><path d="M121.55,168.6v-9.54H141v9.54Z"/><path d="M62.46,149c0-2.87,0-5.8,0-8.72a1.14,1.14,0,0,1,.54-1.18h5.53a9.2,9.2,0,0,0,1.82,0c.54-.1,1,.49,1.61.05l.43.51V149Z"/><path d="M200.1,80.42V90h-9.77a1.31,1.31,0,0,1-.12-.11.25.25,0,0,1-.06-.14V80.42Z"/><path d="M62.5,119.51V110h9.84v9.53Z"/><path d="M141,129.46h-9.54v-9.83H141Z"/><path d="M111.54,208.12h-9.61v-9.78a.6.6,0,0,1,.11-.12.34.34,0,0,1,.14-.05h9.36Z"/><path class="cls-1" d="M175.5,80h-3.86a3.36,3.36,0,0,1,1.92-.27c.65,0,1.3,0,1.94,0Z"/><rect x="160.44" y="71.72" width="19.52" height="19.46"/></svg>