<svg xmlns="http://www.w3.org/2000/svg" viewBox="0 0 18.86 7.6"><defs><style>.a{fill:#545554;}</style></defs><polygon class="a" points="17.32 0.36 17.32 0.72 17.09 0.72 17.09 0.99 15.46 0.99 15.46 1.46 15.29 1.46 15.29 2.28 14.95 2.28 14.95 2.05 14.74 2.05 14.74 0.99 14.28 0.99 14.28 1.22 14.01 1.22 14.01 2.98 13.86 2.98 13.86 4.1 13.57 4.1 13.57 4.53 12.87 4.53 12.87 4.23 12.48 4.23 12.48 4 12.08 4 12.08 1.98 11.92 1.98 11.92 1.8 11.25 1.8 11.25 4.26 10.95 4.13 10.95 3.76 10.79 3.76 10.79 3.45 10.51 3.45 10.51 3.86 10.27 3.86 10.27 4.69 3.78 4.69 3.25 4.69 3.25 5.08 2.19 5.08 2.19 5.64 0.5 5.64 0.5 7.17 18.44 7.17 18.44 0.36 17.32 0.36"/></svg>